
<svg width="168" height="24" viewBox="0 0 168 24" fill="none" xmlns="http://www.w3.org/2000/svg">
<path d="M31.8161 7.02342C32.9108 7.02342 33.7318 7.32776 34.2791 7.93643C34.8264 8.5451 35.1001 9.43736 35.1001 10.6132V12.5015C35.1001 13.6773 34.8264 14.5696 34.2791 15.1783C33.7318 15.7869 32.9108 16.0913 31.8161 16.0913H30.7749V21.5486H28.5723V7.02342H31.8161ZM30.7749 14.0162H31.8161C32.1766 14.0162 32.4436 13.9125 32.6171 13.705C32.804 13.4975 32.8974 13.1447 32.8974 12.6467V10.468C32.8974 9.96995 32.804 9.6172 32.6171 9.4097C32.4436 9.20219 32.1766 9.09844 31.8161 9.09844H30.7749V14.0162Z" fill="#003366"/>
<path d="M41.124 21.5486L40.7435 18.9133H38.0403L37.6599 21.5486H35.6374L37.8801 7.02342H41.104L43.3467 21.5486H41.124ZM40.4432 16.942L39.3819 9.59645L38.3207 16.942H40.4432Z" fill="#003366"/>
<path d="M46.5751 17.0873V21.5486H44.3724V7.02342H46.5751V13.3522L49.4585 7.02342H51.6611L48.5975 13.4975L51.6611 21.5486H49.3984L47.2559 15.7593L46.5751 17.0873Z" fill="#003366"/>
<path d="M54.8662 7.02342V21.5486H52.6636V7.02342H54.8662Z" fill="#003366"/>
<path d="M56.1964 10.5095C56.1964 9.33361 56.4701 8.43444 57.0174 7.81193C57.5647 7.17559 58.3724 6.85742 59.4403 6.85742C60.5082 6.85742 61.3159 7.17559 61.8632 7.81193C62.4105 8.43444 62.6842 9.33361 62.6842 10.5095V10.966H60.6017V10.3642C60.6017 9.8662 60.5082 9.50653 60.3214 9.28519C60.1345 9.05003 59.8608 8.93244 59.5004 8.93244C59.1399 8.93244 58.8663 9.05003 58.6794 9.28519C58.4925 9.50653 58.3991 9.8662 58.3991 10.3642C58.3991 10.9729 58.5526 11.5055 58.8596 11.962C59.18 12.4185 59.6539 12.9372 60.2813 13.5182C60.8019 14.0162 61.2224 14.4589 61.5428 14.8462C61.8632 15.2198 62.1369 15.6763 62.3638 16.2158C62.5907 16.7553 62.7042 17.3709 62.7042 18.0625C62.7042 19.2384 62.4239 20.1445 61.8632 20.7808C61.3025 21.4033 60.4882 21.7146 59.4203 21.7146C58.3523 21.7146 57.538 21.4033 56.9774 20.7808C56.4167 20.1445 56.1363 19.2384 56.1363 18.0625V17.1703H58.2188V18.2078C58.2188 19.1485 58.5993 19.6188 59.3602 19.6188C60.1211 19.6188 60.5016 19.1485 60.5016 18.2078C60.5016 17.5991 60.3414 17.0665 60.021 16.61C59.714 16.1535 59.2467 15.6348 58.6193 15.0538C58.0987 14.5557 57.6782 14.12 57.3578 13.7465C57.0374 13.3592 56.7638 12.8957 56.5368 12.3562C56.3099 11.8167 56.1964 11.2011 56.1964 10.5095Z" fill="#003366"/>
<path d="M70.1336 7.02342V9.09844H67.8308V21.5486H65.6282V9.09844H63.3254V7.02342H70.1336Z" fill="#003366"/>
<path d="M76.0095 21.5486L75.629 18.9133H72.9258L72.5454 21.5486H70.5229L72.7656 7.02342H75.9895L78.2322 21.5486H76.0095ZM75.3287 16.942L74.2674 9.59645L73.2062 16.942H75.3287Z" fill="#003366"/>
<path d="M81.2203 21.5486H79.2379V7.02342H82.0012L84.2639 15.7178V7.02342H86.2263V21.5486H83.9636L81.2203 11.0282V21.5486Z" fill="#003366"/>
<path d="M90.6322 10.5095C90.6322 9.33361 90.9058 8.43444 91.4531 7.81193C92.0005 7.17559 92.8081 6.85742 93.876 6.85742C94.944 6.85742 95.7516 7.17559 96.2989 7.81193C96.8463 8.43444 97.1199 9.33361 97.1199 10.5095V10.966H95.0374V10.3642C95.0374 9.8662 94.944 9.50653 94.7571 9.28519C94.5702 9.05003 94.2965 8.93244 93.9361 8.93244C93.5757 8.93244 93.302 9.05003 93.1151 9.28519C92.9282 9.50653 92.8348 9.8662 92.8348 10.3642C92.8348 10.9729 92.9883 11.5055 93.2953 11.962C93.6157 12.4185 94.0896 12.9372 94.717 13.5182C95.2377 14.0162 95.6582 14.4589 95.9786 14.8462C96.2989 15.2198 96.5726 15.6763 96.7995 16.2158C97.0265 16.7553 97.1399 17.3709 97.1399 18.0625C97.1399 19.2384 96.8596 20.1445 96.2989 20.7808C95.7383 21.4033 94.924 21.7146 93.856 21.7146C92.7881 21.7146 91.9738 21.4033 91.4131 20.7808C90.8524 20.1445 90.5721 19.2384 90.5721 18.0625V17.1703H92.6546V18.2078C92.6546 19.1485 93.035 19.6188 93.7959 19.6188C94.5569 19.6188 94.9373 19.1485 94.9373 18.2078C94.9373 17.5991 94.7771 17.0665 94.4567 16.61C94.1497 16.1535 93.6825 15.6348 93.0551 15.0538C92.5344 14.5557 92.1139 14.12 91.7936 13.7465C91.4732 13.3592 91.1995 12.8957 90.9726 12.3562C90.7456 11.8167 90.6322 11.2011 90.6322 10.5095Z" fill="#003366"/>
<path d="M102.487 21.5486H99.4632L97.9013 7.02342H100.044L101.225 18.4775L102.287 7.02342H104.409L105.51 18.5605L106.652 7.02342H108.574L107.012 21.5486H104.089L103.288 13.8087L102.487 21.5486Z" fill="#003366"/>
<path d="M114.911 13.1447V15.2198H111.888V19.4735H115.692V21.5486H109.685V7.02342H115.692V9.09844H111.888V13.1447H114.911Z" fill="#003366"/>
<path d="M122.283 13.1447V15.2198H119.26V19.4735H123.064V21.5486H117.057V7.02342H123.064V9.09844H119.26V13.1447H122.283Z" fill="#003366"/>
<path d="M130.597 7.02342V9.09844H128.294V21.5486H126.091V9.09844H123.788V7.02342H130.597Z" fill="#003366"/>
<path d="M134.676 21.5486V7.02342H136.878V13.2485H139.381V7.02342H141.624V21.5486H139.381V15.3235H136.878V21.5486H134.676Z" fill="#003366"/>
<path d="M143.041 10.5095C143.041 9.34745 143.328 8.44827 143.902 7.81193C144.476 7.17559 145.304 6.85742 146.385 6.85742C147.466 6.85742 148.294 7.17559 148.868 7.81193C149.442 8.44827 149.729 9.34745 149.729 10.5095V18.0625C149.729 19.2245 149.442 20.1237 148.868 20.7601C148.294 21.3964 147.466 21.7146 146.385 21.7146C145.304 21.7146 144.476 21.3964 143.902 20.7601C143.328 20.1237 143.041 19.2245 143.041 18.0625V10.5095ZM145.244 18.2078C145.244 19.1623 145.624 19.6395 146.385 19.6395C147.146 19.6395 147.526 19.1623 147.526 18.2078V10.3642C147.526 9.4097 147.146 8.93244 146.385 8.93244C145.624 8.93244 145.244 9.4097 145.244 10.3642V18.2078Z" fill="#003366"/>
<path d="M157.328 7.02342H160.391V21.5486H158.309V11.132L156.787 21.5486H154.705L153.063 11.2772V21.5486H151.14V7.02342H154.204L155.826 17.3363L157.328 7.02342Z" fill="#003366"/>
<path d="M167.22 13.1447V15.2198H164.196V19.4735H168.001V21.5486H161.994V7.02342H168.001V9.09844H164.196V13.1447H167.22Z" fill="#003366"/>
<g clip-path="url(#clip0_6111_4068)">
<path d="M5.05469 12.1824V14.2231C5.38021 14.3091 5.604 14.4185 5.87972 14.5312C6.02734 14.5915 6.18685 14.6539 6.33659 14.7113C7.53271 15.1694 8.79883 16.1168 9.84709 17.3105C9.8571 17.322 9.85612 17.3336 9.85612 17.3451V13.9446C9.85612 12.8329 10.7791 11.932 11.8905 11.932C13.0022 11.932 13.9251 12.8329 13.9251 13.9446V17.5337C14.0065 17.4578 14.0567 17.3834 14.1206 17.3105C15.1689 16.1169 16.4574 15.1694 17.6532 14.7113C17.8033 14.6539 17.9431 14.5915 18.0907 14.5312C18.2826 14.4527 18.4824 14.3758 18.6452 14.3073V12.0659L11.9403 4.57422L5.05469 12.1824Z" fill="#003366"/>
<path d="M11.9731 2.62809L18.9354 10.4077H21.283L11.9704 0.00195312L2.55273 10.4077H4.93213L11.9731 2.62809Z" fill="#003366"/>
<path d="M23.3896 12.2441C23.0292 12.2441 22.6 12.5931 22.3722 13.6213C21.9303 15.6165 20.1865 17.2188 18.7859 17.5175C18.6831 17.5395 18.6102 17.5497 18.5629 17.5497C18.038 17.5497 20.6615 16.2887 20.4128 15.7125C20.3012 15.4539 20.112 15.356 19.8654 15.356C19.4272 15.356 18.8079 15.6648 18.1204 15.9282C17.0056 16.3552 15.9079 17.2525 15.1015 18.1707C14.1944 19.2039 13.0839 20.6171 12.6738 23.9989H16.574C16.6436 23.0583 17.0007 22.5881 17.3028 22.3064C17.9572 21.6961 21.7795 19.9307 22.6447 18.6204C23.5095 17.3101 23.9753 13.9255 23.9989 12.8962C24.0067 12.5531 23.7286 12.2441 23.3896 12.2441Z" fill="#003366"/>
<path d="M11.3251 23.9989C10.915 20.6171 9.80452 19.2039 8.89746 18.1707C8.09114 17.2525 6.99341 16.3552 5.8785 15.9282C5.191 15.6648 4.57161 15.356 4.13354 15.356C3.88704 15.356 3.69775 15.4539 3.58618 15.7125C3.3374 16.2887 5.96102 17.5497 5.43612 17.5497C5.38883 17.5497 5.31583 17.5395 5.21313 17.5175C3.8125 17.2188 2.06868 15.6165 1.62687 13.6213C1.39901 12.5931 0.969806 12.2441 0.609373 12.2441C0.270424 12.2442 -0.0076518 12.5531 0.000160698 12.8962C0.0238423 13.9255 0.489581 17.3101 1.35441 18.6204C2.21956 19.9307 6.04191 21.6961 6.69629 22.3064C6.99837 22.5881 7.35547 23.0583 7.42513 23.9989H11.3251Z" fill="#003366"/>
</g>
<defs>
<clipPath id="clip0_6111_4068">
<rect width="24" height="24" fill="white"/>
</clipPath>
</defs>
</svg>
